<?xml version="1.0" encoding="UTF-8"?>
<!DOCTYPE svg PUBLIC "-//W3C//DTD SVG 1.1//EN" "http://www.w3.org/Graphics/SVG/1.1/DTD/svg11.dtd">
<svg xmlns="http://www.w3.org/2000/svg" version="1.1" width="141px" height="141px" style="shape-rendering:geometricPrecision; text-rendering:geometricPrecision; image-rendering:optimizeQuality; fill-rule:evenodd; clip-rule:evenodd" xmlns:xlink="http://www.w3.org/1999/xlink">
<g><path style="opacity:1" fill="#f4f5f5" d="M 17.5,-0.5 C 25.1667,-0.5 32.8333,-0.5 40.5,-0.5C 40.238,0.977822 40.5713,2.31116 41.5,3.5C 44.1387,5.25271 46.8053,5.58604 49.5,4.5C 49.5,6.16667 49.5,7.83333 49.5,9.5C 46.2784,9.10809 43.2784,9.60809 40.5,11C 42.7521,13.8871 45.7521,15.2205 49.5,15C 50.5981,15.7697 50.5981,16.603 49.5,17.5C 45.8333,17.5 42.1667,17.5 38.5,17.5C 39.6409,14.8071 38.8076,14.1404 36,15.5C 35.187,13.5643 34.687,11.5643 34.5,9.5C 31.0504,8.75635 29.3838,10.0897 29.5,13.5C 27.8333,13.5 26.1667,13.5 24.5,13.5C 24.5,12.1667 24.5,10.8333 24.5,9.5C 22.8333,9.5 21.1667,9.5 19.5,9.5C 19.5,10.8333 19.5,12.1667 19.5,13.5C 18.1667,13.5 16.8333,13.5 15.5,13.5C 15.5979,15.5529 14.9313,17.2196 13.5,18.5C 8.93847,18.7208 8.27181,17.2208 11.5,14C 12.448,13.5172 13.448,13.3505 14.5,13.5C 14.762,12.0222 14.4287,10.6888 13.5,9.5C 12.914,9.70931 12.414,10.0426 12,10.5C 8.38728,6.91628 9.22061,5.24961 14.5,5.5C 14.3505,6.55198 14.5172,7.55198 15,8.5C 16.2988,8.03376 17.7988,8.03376 19.5,8.5C 19.5,7.16667 19.5,5.83333 19.5,4.5C 14.3624,3.93632 13.6957,2.26965 17.5,-0.5 Z"/></g>
<g><path style="opacity:1" fill="#f3f3f4" d="M 40.5,-0.5 C 61.8333,-0.5 83.1667,-0.5 104.5,-0.5C 103.811,0.70722 103.645,2.04055 104,3.5C 102.989,4.33663 101.822,4.66997 100.5,4.5C 100.5,5.83333 100.5,7.16667 100.5,8.5C 103.95,9.24365 105.616,7.91032 105.5,4.5C 106.833,4.5 108.167,4.5 109.5,4.5C 109.45,6.59007 110.45,7.9234 112.5,8.5C 114.167,7.16667 115.833,5.83333 117.5,4.5C 121.243,7.19296 120.577,8.85963 115.5,9.5C 115.5,10.8333 115.5,12.1667 115.5,13.5C 113.833,13.5 112.167,13.5 110.5,13.5C 110.5,12.1667 110.5,10.8333 110.5,9.5C 108.833,9.5 107.167,9.5 105.5,9.5C 105.773,11.451 105.107,12.951 103.5,14C 104.546,15.5385 105.879,15.7052 107.5,14.5C 109.5,15 111.5,15.5 113.5,16C 110.972,16.6689 110.972,17.5022 113.5,18.5C 114.466,14.8616 116.799,13.1949 120.5,13.5C 120.5,12.1667 120.5,10.8333 120.5,9.5C 122.167,9.5 123.833,9.5 125.5,9.5C 125.5,10.8333 125.5,12.1667 125.5,13.5C 128.187,13.6641 130.854,13.4974 133.5,13C 132.269,11.8173 132.269,10.6507 133.5,9.5C 134.255,13.3774 136.588,15.044 140.5,14.5C 140.5,15.8333 140.5,17.1667 140.5,18.5C 136.828,18.1826 135.162,19.8493 135.5,23.5C 133.712,23.7852 132.045,23.4519 130.5,22.5C 131.167,21.8333 131.833,21.1667 132.5,20.5C 131.183,20.6869 129.85,20.0202 128.5,18.5C 126.95,20.4279 125.283,22.2613 123.5,24C 125.81,24.4966 128.143,24.6633 130.5,24.5C 130.5,25.8333 130.5,27.1667 130.5,28.5C 126.978,26.6815 123.312,26.0148 119.5,26.5C 116.763,21.9582 112.763,19.1249 107.5,18C 88.1695,17.5 68.8362,17.3334 49.5,17.5C 50.5981,16.603 50.5981,15.7697 49.5,15C 45.7521,15.2205 42.7521,13.8871 40.5,11C 43.2784,9.60809 46.2784,9.10809 49.5,9.5C 49.5,7.83333 49.5,6.16667 49.5,4.5C 46.8053,5.58604 44.1387,5.25271 41.5,3.5C 40.5713,2.31116 40.238,0.977822 40.5,-0.5 Z"/></g>
<g><path style="opacity:1" fill="#f0f1f2" d="M -0.5,-0.5 C 5.5,-0.5 11.5,-0.5 17.5,-0.5C 13.6957,2.26965 14.3624,3.93632 19.5,4.5C 19.5,5.83333 19.5,7.16667 19.5,8.5C 17.7988,8.03376 16.2988,8.03376 15,8.5C 14.5172,7.55198 14.3505,6.55198 14.5,5.5C 9.22061,5.24961 8.38728,6.91628 12,10.5C 12.414,10.0426 12.914,9.70931 13.5,9.5C 14.4287,10.6888 14.762,12.0222 14.5,13.5C 13.448,13.3505 12.448,13.5172 11.5,14C 8.27181,17.2208 8.93847,18.7208 13.5,18.5C 13.9783,21.2776 12.9783,23.2776 10.5,24.5C 9.75415,25.7362 9.42082,27.0695 9.5,28.5C 10.791,28.2627 11.791,28.596 12.5,29.5C 8.09514,30.0918 3.76181,30.0918 -0.5,29.5C -0.5,19.5 -0.5,9.5 -0.5,-0.5 Z"/></g>
<g><path style="opacity:1" fill="#f0f0f2" d="M 104.5,-0.5 C 116.5,-0.5 128.5,-0.5 140.5,-0.5C 140.5,4.5 140.5,9.5 140.5,14.5C 136.588,15.044 134.255,13.3774 133.5,9.5C 132.269,10.6507 132.269,11.8173 133.5,13C 130.854,13.4974 128.187,13.6641 125.5,13.5C 125.5,12.1667 125.5,10.8333 125.5,9.5C 123.833,9.5 122.167,9.5 120.5,9.5C 120.5,10.8333 120.5,12.1667 120.5,13.5C 116.799,13.1949 114.466,14.8616 113.5,18.5C 110.972,17.5022 110.972,16.6689 113.5,16C 111.5,15.5 109.5,15 107.5,14.5C 105.879,15.7052 104.546,15.5385 103.5,14C 105.107,12.951 105.773,11.451 105.5,9.5C 107.167,9.5 108.833,9.5 110.5,9.5C 110.5,10.8333 110.5,12.1667 110.5,13.5C 112.167,13.5 113.833,13.5 115.5,13.5C 115.5,12.1667 115.5,10.8333 115.5,9.5C 120.577,8.85963 121.243,7.19296 117.5,4.5C 115.833,5.83333 114.167,7.16667 112.5,8.5C 110.45,7.9234 109.45,6.59007 109.5,4.5C 108.167,4.5 106.833,4.5 105.5,4.5C 105.616,7.91032 103.95,9.24365 100.5,8.5C 100.5,7.16667 100.5,5.83333 100.5,4.5C 101.822,4.66997 102.989,4.33663 104,3.5C 103.645,2.04055 103.811,0.70722 104.5,-0.5 Z"/></g>
<g><path style="opacity:1" fill="#f2f3f4" d="M 38.5,17.5 C 31.3734,17.2315 25.7067,19.8982 21.5,25.5C 19.3206,24.8968 17.154,24.2301 15,23.5C 14.9633,25.9739 14.13,27.9739 12.5,29.5C 11.791,28.596 10.791,28.2627 9.5,28.5C 9.42082,27.0695 9.75415,25.7362 10.5,24.5C 12.9783,23.2776 13.9783,21.2776 13.5,18.5C 14.9313,17.2196 15.5979,15.5529 15.5,13.5C 16.8333,13.5 18.1667,13.5 19.5,13.5C 19.5,12.1667 19.5,10.8333 19.5,9.5C 21.1667,9.5 22.8333,9.5 24.5,9.5C 24.5,10.8333 24.5,12.1667 24.5,13.5C 26.1667,13.5 27.8333,13.5 29.5,13.5C 29.3838,10.0897 31.0504,8.75635 34.5,9.5C 34.687,11.5643 35.187,13.5643 36,15.5C 38.8076,14.1404 39.6409,14.8071 38.5,17.5 Z"/></g>
<g><path style="opacity:1" fill="#7fd6f1" d="M 38.5,17.5 C 42.1667,17.5 45.8333,17.5 49.5,17.5C 68.8362,17.3334 88.1695,17.5 107.5,18C 112.763,19.1249 116.763,21.9582 119.5,26.5C 119.833,27.1667 120.167,27.8333 120.5,28.5C 117.744,26.5527 115.078,24.386 112.5,22C 110.913,21.1376 109.246,20.4709 107.5,20C 94.8377,19.5001 82.1711,19.3334 69.5,19.5C 65.1667,19.5 60.8333,19.5 56.5,19.5C 48.3159,19.1743 40.3159,19.5076 32.5,20.5C 28.4146,21.3782 24.7479,23.0449 21.5,25.5C 25.7067,19.8982 31.3734,17.2315 38.5,17.5 Z"/></g>
<g><path style="opacity:1" fill="#2ab9e4" d="M 69.5,19.5 C 82.1711,19.3334 94.8377,19.5001 107.5,20C 109.246,20.4709 110.913,21.1376 112.5,22C 115.078,24.386 117.744,26.5527 120.5,28.5C 121.234,29.7079 121.567,31.0413 121.5,32.5C 119.984,31.1003 118.317,29.767 116.5,28.5C 112.896,28.9101 109.229,29.0768 105.5,29C 104.167,29.6667 104.167,30.3333 105.5,31C 102.905,31.2256 100.405,31.7256 98,32.5C 97.2916,24.9806 95.1249,24.6473 91.5,31.5C 89.2241,30.7868 86.8907,30.2868 84.5,30C 87.3333,28.1667 87.1667,26.6667 84,25.5C 81.7204,25.4204 79.3871,26.0871 77,27.5C 76.2613,26.4258 75.2613,25.7591 74,25.5C 69.8838,26.925 66.3838,25.925 63.5,22.5C 65.7451,21.7918 67.7451,20.7918 69.5,19.5 Z"/></g>
<g><path style="opacity:1" fill="#f1f1f3" d="M 140.5,18.5 C 140.5,25.5 140.5,32.5 140.5,39.5C 139.312,40.6843 138.145,40.6843 137,39.5C 136.374,41.9913 135.541,41.9913 134.5,39.5C 133.289,40.2739 133.289,41.1072 134.5,42C 134,42.1667 133.5,42.3333 133,42.5C 131.902,41.6161 131.402,40.6161 131.5,39.5C 130.749,40.376 130.249,41.376 130,42.5C 129.417,40.9984 128.584,39.6651 127.5,38.5C 126.914,38.7093 126.414,39.0426 126,39.5C 125.284,37.1209 124.117,35.1209 122.5,33.5C 122.5,32.8333 122.167,32.5 121.5,32.5C 121.567,31.0413 121.234,29.7079 120.5,28.5C 120.167,27.8333 119.833,27.1667 119.5,26.5C 123.312,26.0148 126.978,26.6815 130.5,28.5C 130.5,27.1667 130.5,25.8333 130.5,24.5C 128.143,24.6633 125.81,24.4966 123.5,24C 125.283,22.2613 126.95,20.4279 128.5,18.5C 129.85,20.0202 131.183,20.6869 132.5,20.5C 131.833,21.1667 131.167,21.8333 130.5,22.5C 132.045,23.4519 133.712,23.7852 135.5,23.5C 135.162,19.8493 136.828,18.1826 140.5,18.5 Z"/></g>
<g><path style="opacity:1" fill="#23acdf" d="M 56.5,19.5 C 56.5106,21.0174 57.1772,22.1841 58.5,23C 62.0207,24.7409 65.3541,26.7409 68.5,29C 69.7659,29.3095 70.9326,29.8095 72,30.5C 74.2342,30.6263 76.5676,30.2929 79,29.5C 80.0674,30.1905 81.2341,30.6905 82.5,31C 82.2716,31.3988 81.9382,31.5654 81.5,31.5C 75.7141,31.3116 70.0475,31.9783 64.5,33.5C 64.631,32.7611 64.4643,32.0944 64,31.5C 62.0036,31.9963 60.3369,32.9963 59,34.5C 57.5093,32.9963 55.676,32.1629 53.5,32C 55.0589,31.0201 56.7256,30.1867 58.5,29.5C 57.0186,28.5197 55.6853,27.353 54.5,26C 52.4213,25.1923 50.4213,25.359 48.5,26.5C 51.1329,27.3178 52.2995,28.9845 52,31.5C 49.9242,28.4455 47.2576,27.4455 44,28.5C 40.1922,25.7633 36.3589,23.0967 32.5,20.5C 40.3159,19.5076 48.3159,19.1743 56.5,19.5 Z"/></g>
<g><path style="opacity:1" fill="#209fda" d="M 32.5,20.5 C 36.3589,23.0967 40.1922,25.7633 44,28.5C 47.2576,27.4455 49.9242,28.4455 52,31.5C 52.2995,28.9845 51.1329,27.3178 48.5,26.5C 50.4213,25.359 52.4213,25.1923 54.5,26C 55.6853,27.353 57.0186,28.5197 58.5,29.5C 56.7256,30.1867 55.0589,31.0201 53.5,32C 55.676,32.1629 57.5093,32.9963 59,34.5C 60.3369,32.9963 62.0036,31.9963 64,31.5C 64.4643,32.0944 64.631,32.7611 64.5,33.5C 59.7156,35.0579 55.3822,37.3912 51.5,40.5C 42.6474,33.7154 32.6474,29.0487 21.5,26.5C 21.5,26.1667 21.5,25.8333 21.5,25.5C 24.7479,23.0449 28.4146,21.3782 32.5,20.5 Z"/></g>
<g><path style="opacity:1" fill="#32b1e1" d="M 56.5,19.5 C 60.8333,19.5 65.1667,19.5 69.5,19.5C 67.7451,20.7918 65.7451,21.7918 63.5,22.5C 66.3838,25.925 69.8838,26.925 74,25.5C 75.2613,25.7591 76.2613,26.4258 77,27.5C 79.3871,26.0871 81.7204,25.4204 84,25.5C 87.1667,26.6667 87.3333,28.1667 84.5,30C 86.8907,30.2868 89.2241,30.7868 91.5,31.5C 95.1249,24.6473 97.2916,24.9806 98,32.5C 100.405,31.7256 102.905,31.2256 105.5,31C 104.167,30.3333 104.167,29.6667 105.5,29C 109.229,29.0768 112.896,28.9101 116.5,28.5C 118.317,29.767 119.984,31.1003 121.5,32.5C 122.167,32.5 122.5,32.8333 122.5,33.5C 122.195,38.7616 122.529,43.9283 123.5,49C 121.86,49.3478 120.527,48.8478 119.5,47.5C 121.369,45.3647 122.036,42.6981 121.5,39.5C 119.801,39.6602 118.134,39.4935 116.5,39C 117.696,38.3457 117.696,37.8457 116.5,37.5C 113.238,38.2798 110.071,38.6131 107,38.5C 106.5,38.3333 106,38.1667 105.5,38C 106.711,37.1072 106.711,36.2739 105.5,35.5C 101.756,35.2948 98.0896,35.2948 94.5,35.5C 90.1959,33.7295 85.8626,32.3961 81.5,31.5C 81.9382,31.5654 82.2716,31.3988 82.5,31C 81.2341,30.6905 80.0674,30.1905 79,29.5C 76.5676,30.2929 74.2342,30.6263 72,30.5C 70.9326,29.8095 69.7659,29.3095 68.5,29C 65.3541,26.7409 62.0207,24.7409 58.5,23C 57.1772,22.1841 56.5106,21.0174 56.5,19.5 Z"/></g>
<g><path style="opacity:1" fill="#eff1f4" d="M 21.5,25.5 C 21.5,25.8333 21.5,26.1667 21.5,26.5C 20.2632,27.9649 19.2632,29.6316 18.5,31.5C 18.5,31.8333 18.5,32.1667 18.5,32.5C 17.5098,38.6446 17.1765,44.9779 17.5,51.5C 11.4657,51.1141 5.46575,50.4474 -0.5,49.5C -0.5,42.8333 -0.5,36.1667 -0.5,29.5C 3.76181,30.0918 8.09514,30.0918 12.5,29.5C 14.13,27.9739 14.9633,25.9739 15,23.5C 17.154,24.2301 19.3206,24.8968 21.5,25.5 Z"/></g>
<g><path style="opacity:1" fill="#2087ce" d="M 18.5,31.5 C 19.2076,33.3779 20.3743,35.0445 22,36.5C 22.3333,35.8333 22.6667,35.1667 23,34.5C 30.4867,35.5381 36.9867,39.0381 42.5,45C 38.9065,44.2552 35.2398,43.9218 31.5,44C 33.9969,44.4117 35.9969,45.5784 37.5,47.5C 36.4126,48.105 35.246,47.7717 34,46.5C 33.1841,47.8228 32.0174,48.4894 30.5,48.5C 26.4432,48.1522 22.4432,47.4855 18.5,46.5C 18.5,41.8333 18.5,37.1667 18.5,32.5C 18.5,32.1667 18.5,31.8333 18.5,31.5 Z"/></g>
<g><path style="opacity:1" fill="#b5c3d4" d="M 81.5,31.5 C 85.8626,32.3961 90.1959,33.7295 94.5,35.5C 96.3684,36.2632 98.0351,37.2632 99.5,38.5C 101.511,40.8328 104.511,42.6662 108.5,44C 107.101,44.5946 105.768,44.4279 104.5,43.5C 103.808,44.0253 103.308,44.6919 103,45.5C 101.836,42.5052 99.6692,40.8386 96.5,40.5C 95.1667,40.5 93.8333,40.5 92.5,40.5C 93.024,36.6897 91.3574,34.6897 87.5,34.5C 81.3702,33.2338 75.3702,33.2338 69.5,34.5C 69.1583,35.3382 68.4916,35.6716 67.5,35.5C 65.8008,35.3398 64.1341,35.5065 62.5,36C 59.5819,37.7733 56.5819,39.2733 53.5,40.5C 53.5,41.5 53.5,42.5 53.5,43.5C 49.6891,45.436 47.0225,48.436 45.5,52.5C 44.325,52.719 43.325,52.3857 42.5,51.5C 43.5498,50.5712 43.5498,49.9046 42.5,49.5C 45.1938,46.1395 48.1938,43.1395 51.5,40.5C 55.3822,37.3912 59.7156,35.0579 64.5,33.5C 70.0475,31.9783 75.7141,31.3116 81.5,31.5 Z"/></g>
<g><path style="opacity:1" fill="#3b64aa" d="M 69.5,34.5 C 75.3702,33.2338 81.3702,33.2338 87.5,34.5C 87.6107,35.1174 87.944,35.6174 88.5,36C 85.5958,36.1328 83.2624,37.2995 81.5,39.5C 81.573,37.9731 80.9063,36.9731 79.5,36.5C 76.418,34.819 73.0847,34.1524 69.5,34.5 Z"/></g>
<g><path style="opacity:1" fill="#080c18" d="M 69.5,34.5 C 73.0847,34.1524 76.418,34.819 79.5,36.5C 77.5658,39.9424 74.5658,41.2757 70.5,40.5C 68.0478,40.4609 66.0478,39.7943 64.5,38.5C 65.8333,37.8333 66.8333,36.8333 67.5,35.5C 68.4916,35.6716 69.1583,35.3382 69.5,34.5 Z"/></g>
<g><path style="opacity:1" fill="#edeff4" d="M 122.5,33.5 C 124.117,35.1209 125.284,37.1209 126,39.5C 126.414,39.0426 126.914,38.7093 127.5,38.5C 128.584,39.6651 129.417,40.9984 130,42.5C 130.249,41.376 130.749,40.376 131.5,39.5C 131.402,40.6161 131.902,41.6161 133,42.5C 133.5,42.3333 134,42.1667 134.5,42C 133.289,41.1072 133.289,40.2739 134.5,39.5C 135.541,41.9913 136.374,41.9913 137,39.5C 138.145,40.6843 139.312,40.6843 140.5,39.5C 140.5,46.5 140.5,53.5 140.5,60.5C 137.779,60.0372 135.112,59.3705 132.5,58.5C 131.893,54.102 130.893,53.7687 129.5,57.5C 121.26,54.4194 112.926,51.7528 104.5,49.5C 104.671,46.2027 104.005,45.8694 102.5,48.5C 101.482,47.8075 100.482,47.1408 99.5,46.5C 95.8109,45.7886 94.8109,43.7886 96.5,40.5C 99.6692,40.8386 101.836,42.5052 103,45.5C 103.308,44.6919 103.808,44.0253 104.5,43.5C 105.768,44.4279 107.101,44.5946 108.5,44C 104.511,42.6662 101.511,40.8328 99.5,38.5C 106.167,41.5 112.833,44.5 119.5,47.5C 120.527,48.8478 121.86,49.3478 123.5,49C 122.529,43.9283 122.195,38.7616 122.5,33.5 Z"/></g>
<g><path style="opacity:1" fill="#475d8f" d="M 67.5,35.5 C 66.8333,36.8333 65.8333,37.8333 64.5,38.5C 62.6675,39.2485 61.0009,40.2485 59.5,41.5C 57.1417,41.2525 55.1417,41.9192 53.5,43.5C 53.5,42.5 53.5,41.5 53.5,40.5C 56.5819,39.2733 59.5819,37.7733 62.5,36C 64.1341,35.5065 65.8008,35.3398 67.5,35.5 Z"/></g>
<g><path style="opacity:1" fill="#131e39" d="M 79.5,36.5 C 80.9063,36.9731 81.573,37.9731 81.5,39.5C 80.2213,42.1117 78.5547,44.4451 76.5,46.5C 72.0914,49.0359 67.4247,51.0359 62.5,52.5C 60.4352,52.5172 58.4352,52.8505 56.5,53.5C 53.2346,53.2082 50.2346,53.8749 47.5,55.5C 46.2867,55.2528 45.62,54.5862 45.5,53.5C 48.8333,52.8333 52.1667,52.1667 55.5,51.5C 55.3379,49.4727 55.5045,47.4727 56,45.5C 57.3756,44.2949 58.5423,42.9616 59.5,41.5C 61.0009,40.2485 62.6675,39.2485 64.5,38.5C 66.0478,39.7943 68.0478,40.4609 70.5,40.5C 74.5658,41.2757 77.5658,39.9424 79.5,36.5 Z"/></g>
<g><path style="opacity:1" fill="#4495d7" d="M 87.5,34.5 C 91.3574,34.6897 93.024,36.6897 92.5,40.5C 86.8591,41.4875 81.8591,43.8208 77.5,47.5C 76.8333,47.5 76.5,47.1667 76.5,46.5C 78.5547,44.4451 80.2213,42.1117 81.5,39.5C 83.2624,37.2995 85.5958,36.1328 88.5,36C 87.944,35.6174 87.6107,35.1174 87.5,34.5 Z"/></g>
<g><path style="opacity:1" fill="#2ba1db" d="M 94.5,35.5 C 98.0896,35.2948 101.756,35.2948 105.5,35.5C 106.711,36.2739 106.711,37.1072 105.5,38C 106,38.1667 106.5,38.3333 107,38.5C 110.071,38.6131 113.238,38.2798 116.5,37.5C 117.696,37.8457 117.696,38.3457 116.5,39C 118.134,39.4935 119.801,39.6602 121.5,39.5C 122.036,42.6981 121.369,45.3647 119.5,47.5C 112.833,44.5 106.167,41.5 99.5,38.5C 98.0351,37.2632 96.3684,36.2632 94.5,35.5 Z"/></g>
<g><path style="opacity:1" fill="#2493d3" d="M 21.5,26.5 C 32.6474,29.0487 42.6474,33.7154 51.5,40.5C 48.1938,43.1395 45.1938,46.1395 42.5,49.5C 41.8333,50.1667 41.1667,50.8333 40.5,51.5C 37.2644,50.1347 33.9311,49.1347 30.5,48.5C 32.0174,48.4894 33.1841,47.8228 34,46.5C 35.246,47.7717 36.4126,48.105 37.5,47.5C 35.9969,45.5784 33.9969,44.4117 31.5,44C 35.2398,43.9218 38.9065,44.2552 42.5,45C 36.9867,39.0381 30.4867,35.5381 23,34.5C 22.6667,35.1667 22.3333,35.8333 22,36.5C 20.3743,35.0445 19.2076,33.3779 18.5,31.5C 19.2632,29.6316 20.2632,27.9649 21.5,26.5 Z"/></g>
<g><path style="opacity:1" fill="#204489" d="M 59.5,41.5 C 58.5423,42.9616 57.3756,44.2949 56,45.5C 55.5045,47.4727 55.3379,49.4727 55.5,51.5C 52.1667,52.1667 48.8333,52.8333 45.5,53.5C 45.5,53.1667 45.5,52.8333 45.5,52.5C 47.0225,48.436 49.6891,45.436 53.5,43.5C 55.1417,41.9192 57.1417,41.2525 59.5,41.5 Z"/></g>
<g><path style="opacity:1" fill="#d4e6f4" d="M 92.5,40.5 C 93.8333,40.5 95.1667,40.5 96.5,40.5C 94.8109,43.7886 95.8109,45.7886 99.5,46.5C 99.7678,48.099 99.4345,49.4324 98.5,50.5C 97.4324,49.5655 96.099,49.2322 94.5,49.5C 90.2347,49.5663 86.2347,50.5663 82.5,52.5C 82.5824,50.7483 81.7491,49.7483 80,49.5C 76.8743,51.3121 73.7077,52.9788 70.5,54.5C 71.5,53.1667 72.5,51.8333 73.5,50.5C 75.4044,50.2624 76.7377,49.2624 77.5,47.5C 81.8591,43.8208 86.8591,41.4875 92.5,40.5 Z"/></g>
<g><path style="opacity:1" fill="#3cbaec" d="M 18.5,46.5 C 22.4432,47.4855 26.4432,48.1522 30.5,48.5C 33.9311,49.1347 37.2644,50.1347 40.5,51.5C 39.5,52.1667 38.5,52.8333 37.5,53.5C 31.5168,51.1685 25.1834,49.8352 18.5,49.5C 18.5,48.5 18.5,47.5 18.5,46.5 Z"/></g>
<g><path style="opacity:1" fill="#d8e3ef" d="M 18.5,32.5 C 18.5,37.1667 18.5,41.8333 18.5,46.5C 18.5,47.5 18.5,48.5 18.5,49.5C 18.5,50.5 18.5,51.5 18.5,52.5C 18.5,54.5 18.5,56.5 18.5,58.5C 17.5386,60.2646 17.2053,62.2646 17.5,64.5C 17.5,67.5 17.5,70.5 17.5,73.5C 11.5,73.5 5.5,73.5 -0.5,73.5C -0.5,65.5 -0.5,57.5 -0.5,49.5C 5.46575,50.4474 11.4657,51.1141 17.5,51.5C 17.1765,44.9779 17.5098,38.6446 18.5,32.5 Z"/></g>
<g><path style="opacity:1" fill="#218ad4" d="M 18.5,49.5 C 25.1834,49.8352 31.5168,51.1685 37.5,53.5C 35.4707,55.8585 33.4707,58.1918 31.5,60.5C 26.8781,60.8439 22.5448,60.1773 18.5,58.5C 22.1185,57.7564 25.7852,57.423 29.5,57.5C 29.67,56.1779 29.3366,55.0113 28.5,54C 25.1727,53.3897 21.8394,52.8897 18.5,52.5C 18.5,51.5 18.5,50.5 18.5,49.5 Z"/></g>
<g><path style="opacity:1" fill="#bdcce4" d="M 99.5,46.5 C 100.482,47.1408 101.482,47.8075 102.5,48.5C 104.005,45.8694 104.671,46.2027 104.5,49.5C 112.926,51.7528 121.26,54.4194 129.5,57.5C 130.893,53.7687 131.893,54.102 132.5,58.5C 131.584,58.9817 130.584,59.315 129.5,59.5C 121.875,56.9578 114.208,54.6245 106.5,52.5C 106.5,54.5 106.5,56.5 106.5,58.5C 105.5,58.5 104.5,58.5 103.5,58.5C 102.367,46.6968 101.7,46.6968 101.5,58.5C 100.391,58.4431 99.391,58.1098 98.5,57.5C 98.5,55.1667 98.5,52.8333 98.5,50.5C 99.4345,49.4324 99.7678,48.099 99.5,46.5 Z"/></g>
<g><path style="opacity:1" fill="#4084bf" d="M 94.5,49.5 C 96.099,49.2322 97.4324,49.5655 98.5,50.5C 98.5,52.8333 98.5,55.1667 98.5,57.5C 96.3792,57.6747 94.3792,57.3414 92.5,56.5C 93.9395,54.412 94.6061,52.0786 94.5,49.5 Z"/></g>
<g><path style="opacity:1" fill="#bfc2cf" d="M 76.5,46.5 C 76.5,47.1667 76.8333,47.5 77.5,47.5C 76.7377,49.2624 75.4044,50.2624 73.5,50.5C 68.9937,53.9222 63.9937,56.5888 58.5,58.5C 57.8333,58.3333 57.1667,58.1667 56.5,58C 57.7675,55.2851 59.7675,53.4517 62.5,52.5C 67.4247,51.0359 72.0914,49.0359 76.5,46.5 Z"/></g>
<g><path style="opacity:1" fill="#1565bd" d="M 18.5,52.5 C 21.8394,52.8897 25.1727,53.3897 28.5,54C 29.3366,55.0113 29.67,56.1779 29.5,57.5C 25.7852,57.423 22.1185,57.7564 18.5,58.5C 18.5,56.5 18.5,54.5 18.5,52.5 Z"/></g>
<g><path style="opacity:1" fill="#5c6b89" d="M 42.5,49.5 C 43.5498,49.9046 43.5498,50.5712 42.5,51.5C 43.325,52.3857 44.325,52.719 45.5,52.5C 45.5,52.8333 45.5,53.1667 45.5,53.5C 45.62,54.5862 46.2867,55.2528 47.5,55.5C 50.2346,53.8749 53.2346,53.2082 56.5,53.5C 55.1848,56.0056 53.1848,57.839 50.5,59C 53.0972,59.7792 53.0972,60.2792 50.5,60.5C 49.8826,60.6107 49.3826,60.944 49,61.5C 46.595,60.7256 44.095,60.2256 41.5,60C 42.5,58.3333 43.5,56.6667 44.5,55C 43.552,54.5172 42.552,54.3505 41.5,54.5C 40.8902,53.609 40.5569,52.609 40.5,51.5C 41.1667,50.8333 41.8333,50.1667 42.5,49.5 Z"/></g>
<g><path style="opacity:1" fill="#5d93c6" d="M 103.5,58.5 C 102.833,58.5 102.167,58.5 101.5,58.5C 101.7,46.6968 102.367,46.6968 103.5,58.5 Z"/></g>
<g><path style="opacity:1" fill="#37598e" d="M 94.5,49.5 C 94.6061,52.0786 93.9395,54.412 92.5,56.5C 86.4021,57.8638 80.7355,60.1972 75.5,63.5C 75.1667,63.5 74.8333,63.5 74.5,63.5C 73.2003,62.399 72.7003,61.0657 73,59.5C 75.7517,56.5471 78.9184,54.2137 82.5,52.5C 86.2347,50.5663 90.2347,49.5663 94.5,49.5 Z"/></g>
<g><path style="opacity:1" fill="#5a85bd" d="M 132.5,58.5 C 132.414,59.4959 132.748,60.3292 133.5,61C 135.813,61.662 138.146,62.162 140.5,62.5C 140.5,64.5 140.5,66.5 140.5,68.5C 138.833,68.5 137.167,68.5 135.5,68.5C 135.817,65.4535 134.484,63.7868 131.5,63.5C 130.833,64.8333 130.167,66.1667 129.5,67.5C 129.5,66.5 129.5,65.5 129.5,64.5C 122.132,62.8178 114.798,61.1511 107.5,59.5C 106.833,59.5 106.5,59.1667 106.5,58.5C 106.5,56.5 106.5,54.5 106.5,52.5C 114.208,54.6245 121.875,56.9578 129.5,59.5C 130.584,59.315 131.584,58.9817 132.5,58.5 Z"/></g>
<g><path style="opacity:1" fill="#121722" d="M 92.5,56.5 C 94.3792,57.3414 96.3792,57.6747 98.5,57.5C 98.5,59.5 98.5,61.5 98.5,63.5C 91.0554,62.8737 83.8888,63.8737 77,66.5C 76.6174,65.944 76.1174,65.6107 75.5,65.5C 75.5,64.8333 75.5,64.1667 75.5,63.5C 80.7355,60.1972 86.4021,57.8638 92.5,56.5 Z"/></g>
<g><path style="opacity:1" fill="#5ccef2" d="M 18.5,58.5 C 22.5448,60.1773 26.8781,60.8439 31.5,60.5C 30.8333,61.8333 29.8333,62.8333 28.5,63.5C 28.0296,62.3065 27.0296,61.6399 25.5,61.5C 22.3926,61.5993 19.726,62.5993 17.5,64.5C 17.2053,62.2646 17.5386,60.2646 18.5,58.5 Z"/></g>
<g><path style="opacity:1" fill="#b3badb" d="M 132.5,58.5 C 135.112,59.3705 137.779,60.0372 140.5,60.5C 140.5,61.1667 140.5,61.8333 140.5,62.5C 138.146,62.162 135.813,61.662 133.5,61C 132.748,60.3292 132.414,59.4959 132.5,58.5 Z"/></g>
<g><path style="opacity:1" fill="#20293e" d="M 107.5,59.5 C 114.798,61.1511 122.132,62.8178 129.5,64.5C 129.5,65.5 129.5,66.5 129.5,67.5C 122.167,66.5 114.833,65.5 107.5,64.5C 107.5,62.8333 107.5,61.1667 107.5,59.5 Z"/></g>
<g><path style="opacity:1" fill="#58a5de" d="M 28.5,63.5 C 28.1667,64.1667 27.8333,64.8333 27.5,65.5C 24.5,65.5 21.5,65.5 18.5,65.5C 18.5,75.8333 18.5,86.1667 18.5,96.5C 18.5,97.1667 18.5,97.8333 18.5,98.5C 18.1667,98.5 17.8333,98.5 17.5,98.5C 17.5,95.5 17.5,92.5 17.5,89.5C 17.5,84.1667 17.5,78.8333 17.5,73.5C 17.5,70.5 17.5,67.5 17.5,64.5C 19.726,62.5993 22.3926,61.5993 25.5,61.5C 27.0296,61.6399 28.0296,62.3065 28.5,63.5 Z"/></g>
<g><path style="opacity:1" fill="#5676ac" d="M 41.5,54.5 C 42.552,54.3505 43.552,54.5172 44.5,55C 43.5,56.6667 42.5,58.3333 41.5,60C 44.095,60.2256 46.595,60.7256 49,61.5C 49.3826,60.944 49.8826,60.6107 50.5,60.5C 46.8777,62.4142 43.5443,65.4142 40.5,69.5C 40.1714,72.4313 38.5047,74.9313 35.5,77C 36.0442,77.7172 36.7109,78.2172 37.5,78.5C 36.3747,80.1288 35.0414,81.6288 33.5,83C 34.056,83.3826 34.3893,83.8826 34.5,84.5C 32.8333,84.5 31.1667,84.5 29.5,84.5C 29.1667,84.5 28.8333,84.5 28.5,84.5C 29.3024,81.4262 30.3024,78.4262 31.5,75.5C 36.0173,72.0894 35.3506,70.756 29.5,71.5C 29.8769,69.742 30.5435,68.0754 31.5,66.5C 35.9807,63.3616 39.3141,59.3616 41.5,54.5 Z"/></g>
<g><path style="opacity:1" fill="#495268" d="M 101.5,58.5 C 102.167,58.5 102.833,58.5 103.5,58.5C 103.599,61.2372 103.265,63.9039 102.5,66.5C 97.5,66.5 92.5,66.5 87.5,66.5C 91.6344,65.5151 95.9677,65.1818 100.5,65.5C 100.993,63.1944 101.326,60.861 101.5,58.5 Z"/></g>
<g><path style="opacity:1" fill="#5b6e9b" d="M 131.5,63.5 C 134.484,63.7868 135.817,65.4535 135.5,68.5C 137.167,68.5 138.833,68.5 140.5,68.5C 140.5,69.5 140.5,70.5 140.5,71.5C 132.33,71.1014 124.33,70.4348 116.5,69.5C 120.042,69.8128 123.375,69.4794 126.5,68.5C 128.167,68.5 129.833,68.5 131.5,68.5C 131.5,66.8333 131.5,65.1667 131.5,63.5 Z"/></g>
<g><path style="opacity:1" fill="#132f87" d="M 87.5,66.5 C 92.5,66.5 97.5,66.5 102.5,66.5C 110.469,67.4669 118.469,68.1335 126.5,68.5C 123.375,69.4794 120.042,69.8128 116.5,69.5C 99.6479,66.8362 83.3145,68.5028 67.5,74.5C 66.0387,75.6857 64.7054,75.6857 63.5,74.5C 65.5,73.8333 67.5,73.1667 69.5,72.5C 75.155,69.5039 81.155,67.5039 87.5,66.5 Z"/></g>
<g><path style="opacity:1" fill="#c0cee2" d="M 40.5,51.5 C 40.5569,52.609 40.8902,53.609 41.5,54.5C 39.3141,59.3616 35.9807,63.3616 31.5,66.5C 30.5435,68.0754 29.8769,69.742 29.5,71.5C 28.8333,71.5 28.1667,71.5 27.5,71.5C 24.0783,74.6667 21.9116,78.6667 21,83.5C 20.6174,82.944 20.1174,82.6107 19.5,82.5C 20.8218,76.1903 23.4884,70.5236 27.5,65.5C 27.8333,64.8333 28.1667,64.1667 28.5,63.5C 29.8333,62.8333 30.8333,61.8333 31.5,60.5C 33.4707,58.1918 35.4707,55.8585 37.5,53.5C 38.5,52.8333 39.5,52.1667 40.5,51.5 Z"/></g>
<g><path style="opacity:1" fill="#818ba9" d="M 73.5,50.5 C 72.5,51.8333 71.5,53.1667 70.5,54.5C 66.5442,56.7881 63.2109,59.7881 60.5,63.5C 56.1466,63.16 51.8132,63.9934 47.5,66C 44.6384,67.7859 43.9717,70.1192 45.5,73C 42.7339,74.371 40.4006,76.2043 38.5,78.5C 38.1667,78.5 37.8333,78.5 37.5,78.5C 36.7109,78.2172 36.0442,77.7172 35.5,77C 38.5047,74.9313 40.1714,72.4313 40.5,69.5C 43.5443,65.4142 46.8777,62.4142 50.5,60.5C 53.0972,60.2792 53.0972,59.7792 50.5,59C 53.1848,57.839 55.1848,56.0056 56.5,53.5C 58.4352,52.8505 60.4352,52.5172 62.5,52.5C 59.7675,53.4517 57.7675,55.2851 56.5,58C 57.1667,58.1667 57.8333,58.3333 58.5,58.5C 63.9937,56.5888 68.9937,53.9222 73.5,50.5 Z"/></g>
<g><path style="opacity:1" fill="#757e8f" d="M 103.5,58.5 C 104.5,58.5 105.5,58.5 106.5,58.5C 106.5,59.1667 106.833,59.5 107.5,59.5C 107.5,61.1667 107.5,62.8333 107.5,64.5C 114.833,65.5 122.167,66.5 129.5,67.5C 130.167,66.1667 130.833,64.8333 131.5,63.5C 131.5,65.1667 131.5,66.8333 131.5,68.5C 129.833,68.5 128.167,68.5 126.5,68.5C 118.469,68.1335 110.469,67.4669 102.5,66.5C 103.265,63.9039 103.599,61.2372 103.5,58.5 Z"/></g>
<g><path style="opacity:1" fill="#77808b" d="M 98.5,57.5 C 99.391,58.1098 100.391,58.4431 101.5,58.5C 101.326,60.861 100.993,63.1944 100.5,65.5C 95.9677,65.1818 91.6344,65.5151 87.5,66.5C 81.155,67.5039 75.155,69.5039 69.5,72.5C 69.5,71.5 69.5,70.5 69.5,69.5C 71.8798,68.7466 73.8798,67.4132 75.5,65.5C 76.1174,65.6107 76.6174,65.944 77,66.5C 83.8888,63.8737 91.0554,62.8737 98.5,63.5C 98.5,61.5 98.5,59.5 98.5,57.5 Z"/></g>
<g><path style="opacity:1" fill="#bbbecd" d="M 60.5,63.5 C 52.8675,69.7974 45.5341,76.4641 38.5,83.5C 37.506,82.0011 37.506,80.3344 38.5,78.5C 40.4006,76.2043 42.7339,74.371 45.5,73C 43.9717,70.1192 44.6384,67.7859 47.5,66C 51.8132,63.9934 56.1466,63.16 60.5,63.5 Z"/></g>
<g><path style="opacity:1" fill="#354c81" d="M 27.5,71.5 C 28.1667,71.5 28.8333,71.5 29.5,71.5C 35.3506,70.756 36.0173,72.0894 31.5,75.5C 28.8666,77.1321 26.5333,79.1321 24.5,81.5C 25.5576,78.5873 26.8909,75.754 28.5,73C 27.944,72.6174 27.6107,72.1174 27.5,71.5 Z"/></g>
<g><path style="opacity:1" fill="#899dbf" d="M 133.5,73.5 C 132.427,75.6531 132.427,77.6531 133.5,79.5C 132.121,81.5969 130.455,81.9302 128.5,80.5C 129.492,80.6716 130.158,80.3382 130.5,79.5C 130.5,77.8333 130.5,76.1667 130.5,74.5C 122.167,74.5 113.833,74.5 105.5,74.5C 109.445,73.1745 113.778,72.5079 118.5,72.5C 123.548,72.5523 128.548,72.8856 133.5,73.5 Z"/></g>
<g><path style="opacity:1" fill="#f1f3f5" d="M 82.5,52.5 C 78.9184,54.2137 75.7517,56.5471 73,59.5C 72.7003,61.0657 73.2003,62.399 74.5,63.5C 68.5792,67.4878 62.9125,71.9878 57.5,77C 56.2396,78.113 55.073,78.2797 54,77.5C 53.5172,78.448 53.3505,79.448 53.5,80.5C 53.1667,80.5 52.8333,80.5 52.5,80.5C 48.1051,82.6932 43.4385,83.6932 38.5,83.5C 45.5341,76.4641 52.8675,69.7974 60.5,63.5C 63.2109,59.7881 66.5442,56.7881 70.5,54.5C 73.7077,52.9788 76.8743,51.3121 80,49.5C 81.7491,49.7483 82.5824,50.7483 82.5,52.5 Z"/></g>
<g><path style="opacity:1" fill="#b7bec7" d="M 74.5,63.5 C 74.8333,63.5 75.1667,63.5 75.5,63.5C 75.5,64.1667 75.5,64.8333 75.5,65.5C 73.8798,67.4132 71.8798,68.7466 69.5,69.5C 69.5,70.5 69.5,71.5 69.5,72.5C 67.5,73.1667 65.5,73.8333 63.5,74.5C 61.7673,75.0076 61.434,75.841 62.5,77C 59.2615,77.6218 56.2615,78.7884 53.5,80.5C 53.3505,79.448 53.5172,78.448 54,77.5C 55.073,78.2797 56.2396,78.113 57.5,77C 62.9125,71.9878 68.5792,67.4878 74.5,63.5 Z"/></g>
<g><path style="opacity:1" fill="#8a96a3" d="M 104.5,74.5 C 100.818,74.3347 97.1516,74.5014 93.5,75C 97.2496,75.6208 100.916,76.4542 104.5,77.5C 99.5683,76.9567 94.5683,77.6234 89.5,79.5C 88.8333,79.8333 88.1667,80.1667 87.5,80.5C 89.4233,81.3078 91.4233,81.8078 93.5,82C 84.8148,82.8088 76.1482,83.6421 67.5,84.5C 66.7375,83.7321 65.7375,83.2321 64.5,83C 72.6019,80.0724 80.6019,76.739 88.5,73C 93.6119,72.6896 98.6119,72.5229 103.5,72.5C 104.298,72.9569 104.631,73.6236 104.5,74.5 Z"/></g>
<g><path style="opacity:1" fill="#687785" d="M 116.5,69.5 C 124.33,70.4348 132.33,71.1014 140.5,71.5C 140.5,72.1667 140.5,72.8333 140.5,73.5C 138.167,73.5 135.833,73.5 133.5,73.5C 128.548,72.8856 123.548,72.5523 118.5,72.5C 113.778,72.5079 109.445,73.1745 105.5,74.5C 105.167,74.5 104.833,74.5 104.5,74.5C 104.631,73.6236 104.298,72.9569 103.5,72.5C 98.6119,72.5229 93.6119,72.6896 88.5,73C 80.6019,76.739 72.6019,80.0724 64.5,83C 65.7375,83.2321 66.7375,83.7321 67.5,84.5C 65.8008,84.3398 64.1341,84.5065 62.5,85C 66.4862,85.4988 70.4862,85.6655 74.5,85.5C 73.791,86.404 72.791,86.7373 71.5,86.5C 62.9379,86.8427 54.6046,86.176 46.5,84.5C 51.2072,84.0513 55.8738,83.3847 60.5,82.5C 61.086,82.7093 61.586,83.0426 62,83.5C 64.5258,80.8327 66.3591,77.8327 67.5,74.5C 83.3145,68.5028 99.6479,66.8362 116.5,69.5 Z"/></g>
<g><path style="opacity:1" fill="#bcc2d7" d="M 133.5,73.5 C 135.833,73.5 138.167,73.5 140.5,73.5C 140.5,75.8333 140.5,78.1667 140.5,80.5C 138.139,80.3259 135.806,79.9926 133.5,79.5C 132.427,77.6531 132.427,75.6531 133.5,73.5 Z"/></g>
<g><path style="opacity:1" fill="#bac5d9" d="M 104.5,74.5 C 104.833,74.5 105.167,74.5 105.5,74.5C 113.833,74.5 122.167,74.5 130.5,74.5C 130.5,76.1667 130.5,77.8333 130.5,79.5C 125.518,78.9466 120.518,78.6133 115.5,78.5C 111.724,77.614 108.057,77.2807 104.5,77.5C 100.916,76.4542 97.2496,75.6208 93.5,75C 97.1516,74.5014 100.818,74.3347 104.5,74.5 Z"/></g>
<g><path style="opacity:1" fill="#1f3f8b" d="M 31.5,75.5 C 30.3024,78.4262 29.3024,81.4262 28.5,84.5C 27.1266,84.6567 25.7932,84.49 24.5,84C 23.2264,83.0228 23.2264,82.1894 24.5,81.5C 26.5333,79.1321 28.8666,77.1321 31.5,75.5 Z"/></g>
<g><path style="opacity:1" fill="#c4c8cd" d="M 104.5,77.5 C 108.057,77.2807 111.724,77.614 115.5,78.5C 117.631,79.3138 119.964,79.8138 122.5,80C 116.176,79.8199 109.843,79.8199 103.5,80C 95.5,80.6667 95.5,81.3333 103.5,82C 93.8043,83.1326 84.1376,84.2993 74.5,85.5C 70.4862,85.6655 66.4862,85.4988 62.5,85C 64.1341,84.5065 65.8008,84.3398 67.5,84.5C 76.1482,83.6421 84.8148,82.8088 93.5,82C 91.4233,81.8078 89.4233,81.3078 87.5,80.5C 88.1667,80.1667 88.8333,79.8333 89.5,79.5C 94.5683,77.6234 99.5683,76.9567 104.5,77.5 Z"/></g>
<g><path style="opacity:1" fill="#a4acb6" d="M 115.5,78.5 C 120.518,78.6133 125.518,78.9466 130.5,79.5C 130.158,80.3382 129.492,80.6716 128.5,80.5C 125.679,80.5454 123.346,81.5454 121.5,83.5C 113.709,83.8515 106.043,84.8515 98.5,86.5C 97.9032,85.8614 97.0698,85.528 96,85.5C 90.5045,86.2661 85.0045,86.9327 79.5,87.5C 76.6146,87.8064 73.9479,87.4731 71.5,86.5C 72.791,86.7373 73.791,86.404 74.5,85.5C 84.1376,84.2993 93.8043,83.1326 103.5,82C 95.5,81.3333 95.5,80.6667 103.5,80C 109.843,79.8199 116.176,79.8199 122.5,80C 119.964,79.8138 117.631,79.3138 115.5,78.5 Z"/></g>
<g><path style="opacity:1" fill="#c2d2e7" d="M -0.5,73.5 C 5.5,73.5 11.5,73.5 17.5,73.5C 17.5,78.8333 17.5,84.1667 17.5,89.5C 11.477,89.502 5.47704,89.8354 -0.5,90.5C -0.5,84.8333 -0.5,79.1667 -0.5,73.5 Z"/></g>
<g><path style="opacity:1" fill="#588ba4" d="M 63.5,74.5 C 64.7054,75.6857 66.0387,75.6857 67.5,74.5C 66.3591,77.8327 64.5258,80.8327 62,83.5C 61.586,83.0426 61.086,82.7093 60.5,82.5C 55.8738,83.3847 51.2072,84.0513 46.5,84.5C 48.8102,83.675 50.8102,82.3417 52.5,80.5C 52.8333,80.5 53.1667,80.5 53.5,80.5C 56.2615,78.7884 59.2615,77.6218 62.5,77C 61.434,75.841 61.7673,75.0076 63.5,74.5 Z"/></g>
<g><path style="opacity:1" fill="#3a4f81" d="M 133.5,79.5 C 135.806,79.9926 138.139,80.3259 140.5,80.5C 140.5,81.1667 140.5,81.8333 140.5,82.5C 139.609,83.1098 138.609,83.4431 137.5,83.5C 136.508,83.3284 135.842,83.6618 135.5,84.5C 131.207,85.6564 126.874,86.6564 122.5,87.5C 121.127,87.6567 119.793,87.49 118.5,87C 119.71,85.9609 120.71,84.7942 121.5,83.5C 123.346,81.5454 125.679,80.5454 128.5,80.5C 130.455,81.9302 132.121,81.5969 133.5,79.5 Z"/></g>
<g><path style="opacity:1" fill="#73c1e2" d="M 37.5,78.5 C 37.8333,78.5 38.1667,78.5 38.5,78.5C 37.506,80.3344 37.506,82.0011 38.5,83.5C 43.4385,83.6932 48.1051,82.6932 52.5,80.5C 50.8102,82.3417 48.8102,83.675 46.5,84.5C 44.1667,84.5 41.8333,84.5 39.5,84.5C 37.8333,84.5 36.1667,84.5 34.5,84.5C 34.3893,83.8826 34.056,83.3826 33.5,83C 35.0414,81.6288 36.3747,80.1288 37.5,78.5 Z"/></g>
<g><path style="opacity:1" fill="#304c7c" d="M 29.5,84.5 C 31.1667,84.5 32.8333,84.5 34.5,84.5C 36.1667,84.5 37.8333,84.5 39.5,84.5C 39.8333,85.8333 40.1667,87.1667 40.5,88.5C 39.5,88.5 38.5,88.5 37.5,88.5C 37.5,87.5 37.5,86.5 37.5,85.5C 34.6146,85.8064 31.9479,85.4731 29.5,84.5 Z"/></g>
<g><path style="opacity:1" fill="#848687" d="M 19.5,85.5 C 24.7516,86.2849 30.0849,86.7849 35.5,87C 31.4266,87.512 27.4266,88.3453 23.5,89.5C 23.8627,90.1835 24.1961,90.8501 24.5,91.5C 21.4384,90.7322 19.7717,88.7322 19.5,85.5 Z"/></g>
<g><path style="opacity:1" fill="#3160ad" d="M 121.5,83.5 C 120.71,84.7942 119.71,85.9609 118.5,87C 119.793,87.49 121.127,87.6567 122.5,87.5C 119.924,88.4878 117.257,89.4878 114.5,90.5C 114.953,89.5416 115.619,88.7083 116.5,88C 109.907,88.7719 103.407,90.2719 97,92.5C 96.2352,92.4301 95.7352,92.0967 95.5,91.5C 96.6923,89.8869 97.6923,88.2202 98.5,86.5C 106.043,84.8515 113.709,83.8515 121.5,83.5 Z"/></g>
<g><path style="opacity:1" fill="#429ed3" d="M 39.5,84.5 C 41.8333,84.5 44.1667,84.5 46.5,84.5C 54.6046,86.176 62.9379,86.8427 71.5,86.5C 73.9479,87.4731 76.6146,87.8064 79.5,87.5C 78.8333,88.5 78.1667,89.5 77.5,90.5C 65.131,90.436 52.7976,89.7694 40.5,88.5C 40.1667,87.1667 39.8333,85.8333 39.5,84.5 Z"/></g>
<g><path style="opacity:1" fill="#1856aa" d="M 40.5,88.5 C 52.7976,89.7694 65.131,90.436 77.5,90.5C 77.1667,91.5 76.5,92.1667 75.5,92.5C 69.1624,92.2329 62.829,91.8995 56.5,91.5C 50.8951,91.2207 45.5618,90.2207 40.5,88.5 Z"/></g>
<g><path style="opacity:1" fill="#1c1f27" d="M 98.5,86.5 C 97.6923,88.2202 96.6923,89.8869 95.5,91.5C 94.7281,90.3065 93.7281,89.3065 92.5,88.5C 91.0222,88.238 89.6888,88.5713 88.5,89.5C 89.325,90.3857 90.325,90.719 91.5,90.5C 90.7375,91.2679 89.7375,91.7679 88.5,92C 88.8333,92.3333 89.1667,92.6667 89.5,93C 88.1772,93.8159 87.5106,94.9826 87.5,96.5C 87.5,96.8333 87.5,97.1667 87.5,97.5C 86.7784,97.0825 86.2784,96.4158 86,95.5C 83.9935,96.6687 81.8268,97.3354 79.5,97.5C 78.8333,97.8333 78.1667,98.1667 77.5,98.5C 76.4324,97.5655 75.099,97.2322 73.5,97.5C 73.4326,96.0413 73.7659,94.7079 74.5,93.5C 75.1667,93.5 75.5,93.1667 75.5,92.5C 76.5,92.1667 77.1667,91.5 77.5,90.5C 78.1667,89.5 78.8333,88.5 79.5,87.5C 85.0045,86.9327 90.5045,86.2661 96,85.5C 97.0698,85.528 97.9032,85.8614 98.5,86.5 Z"/></g>
<g><path style="opacity:1" fill="#7c7d81" d="M 92.5,88.5 C 92.6716,89.4916 92.3382,90.1583 91.5,90.5C 90.325,90.719 89.325,90.3857 88.5,89.5C 89.6888,88.5713 91.0222,88.238 92.5,88.5 Z"/></g>
<g><path style="opacity:1" fill="#194fb2" d="M 27.5,65.5 C 23.4884,70.5236 20.8218,76.1903 19.5,82.5C 19.5,83.5 19.5,84.5 19.5,85.5C 19.7717,88.7322 21.4384,90.7322 24.5,91.5C 27.8592,92.3432 30.8592,93.6766 33.5,95.5C 33.1667,95.5 32.8333,95.5 32.5,95.5C 32.2648,94.9033 31.7648,94.5699 31,94.5C 26.8899,95.5462 22.7232,96.2128 18.5,96.5C 18.5,86.1667 18.5,75.8333 18.5,65.5C 21.5,65.5 24.5,65.5 27.5,65.5 Z"/></g>
<g><path style="opacity:1" fill="#0f1420" d="M 47.5,93.5 C 46.7611,93.369 46.0944,93.5357 45.5,94C 46.6721,94.4186 47.6721,95.0853 48.5,96C 43.3731,98.1151 38.0398,99.2817 32.5,99.5C 33.8333,98.1667 33.8333,96.8333 32.5,95.5C 32.8333,95.5 33.1667,95.5 33.5,95.5C 35.4646,95.0517 35.7979,94.0517 34.5,92.5C 32.9793,92.1203 31.3126,91.9536 29.5,92C 31.0621,90.6219 32.8955,89.7886 35,89.5C 39.4862,90.1632 43.6529,91.4966 47.5,93.5 Z"/></g>
<g><path style="opacity:1" fill="#142d67" d="M 56.5,91.5 C 62.829,91.8995 69.1624,92.2329 75.5,92.5C 75.5,93.1667 75.1667,93.5 74.5,93.5C 69.8215,93.6658 65.1548,93.4992 60.5,93C 58.9419,92.79 57.6085,92.29 56.5,91.5 Z"/></g>
<g><path style="opacity:1" fill="#1d3f86" d="M 112.5,90.5 C 105.373,93.1223 98.0392,95.4556 90.5,97.5C 90.5,96.8333 90.5,96.1667 90.5,95.5C 97.7253,93.4264 105.059,91.7598 112.5,90.5 Z"/></g>
<g><path style="opacity:1" fill="#2f3549" d="M 27.5,71.5 C 27.6107,72.1174 27.944,72.6174 28.5,73C 26.8909,75.754 25.5576,78.5873 24.5,81.5C 23.2264,82.1894 23.2264,83.0228 24.5,84C 25.7932,84.49 27.1266,84.6567 28.5,84.5C 28.8333,84.5 29.1667,84.5 29.5,84.5C 31.9479,85.4731 34.6146,85.8064 37.5,85.5C 37.5,86.5 37.5,87.5 37.5,88.5C 38.5,88.5 39.5,88.5 40.5,88.5C 45.5618,90.2207 50.8951,91.2207 56.5,91.5C 57.6085,92.29 58.9419,92.79 60.5,93C 65.1548,93.4992 69.8215,93.6658 74.5,93.5C 73.7659,94.7079 73.4326,96.0413 73.5,97.5C 75.099,97.2322 76.4324,97.5655 77.5,98.5C 76.4061,100.836 75.0728,100.836 73.5,98.5C 72.8333,97.5 72.1667,96.5 71.5,95.5C 66.6446,94.3093 61.6446,94.3093 56.5,95.5C 53.8291,93.8819 50.8291,93.2153 47.5,93.5C 43.6529,91.4966 39.4862,90.1632 35,89.5C 32.8955,89.7886 31.0621,90.6219 29.5,92C 31.3126,91.9536 32.9793,92.1203 34.5,92.5C 35.7979,94.0517 35.4646,95.0517 33.5,95.5C 30.8592,93.6766 27.8592,92.3432 24.5,91.5C 24.1961,90.8501 23.8627,90.1835 23.5,89.5C 27.4266,88.3453 31.4266,87.512 35.5,87C 30.0849,86.7849 24.7516,86.2849 19.5,85.5C 19.5,84.5 19.5,83.5 19.5,82.5C 20.1174,82.6107 20.6174,82.944 21,83.5C 21.9116,78.6667 24.0783,74.6667 27.5,71.5 Z"/></g>
<g><path style="opacity:1" fill="#dee5ed" d="M 17.5,89.5 C 17.5,92.5 17.5,95.5 17.5,98.5C 17.5,99.5 17.5,100.5 17.5,101.5C 13.0297,103.49 8.69637,105.656 4.5,108C 2.86586,108.494 1.19919,108.66 -0.5,108.5C -0.5,102.5 -0.5,96.5 -0.5,90.5C 5.47704,89.8354 11.477,89.502 17.5,89.5 Z"/></g>
<g><path style="opacity:1" fill="#16254e" d="M 114.5,90.5 C 113.833,90.5 113.167,90.5 112.5,90.5C 105.059,91.7598 97.7253,93.4264 90.5,95.5C 90.5654,95.0618 90.3988,94.7284 90,94.5C 89.5831,95.756 88.7498,96.4226 87.5,96.5C 87.5106,94.9826 88.1772,93.8159 89.5,93C 89.1667,92.6667 88.8333,92.3333 88.5,92C 89.7375,91.7679 90.7375,91.2679 91.5,90.5C 92.3382,90.1583 92.6716,89.4916 92.5,88.5C 93.7281,89.3065 94.7281,90.3065 95.5,91.5C 95.7352,92.0967 96.2352,92.4301 97,92.5C 103.407,90.2719 109.907,88.7719 116.5,88C 115.619,88.7083 114.953,89.5416 114.5,90.5 Z"/></g>
<g><path style="opacity:1" fill="#aedbf2" d="M 135.5,84.5 C 135.938,84.4346 136.272,84.6012 136.5,85C 135.833,85.3333 135.167,85.6667 134.5,86C 125.231,88.7236 116.231,91.8903 107.5,95.5C 103.12,96.2934 98.7862,97.2934 94.5,98.5C 92.901,98.7678 91.5676,98.4345 90.5,97.5C 98.0392,95.4556 105.373,93.1223 112.5,90.5C 113.167,90.5 113.833,90.5 114.5,90.5C 117.257,89.4878 119.924,88.4878 122.5,87.5C 126.874,86.6564 131.207,85.6564 135.5,84.5 Z"/></g>
<g><path style="opacity:1" fill="#6989be" d="M 135.5,84.5 C 135.842,83.6618 136.508,83.3284 137.5,83.5C 140.125,84.4405 140.125,85.6072 137.5,87C 132.474,89.1814 127.474,91.3481 122.5,93.5C 118.935,95.1157 115.269,96.4491 111.5,97.5C 110.817,95.8235 109.483,95.1568 107.5,95.5C 116.231,91.8903 125.231,88.7236 134.5,86C 135.167,85.6667 135.833,85.3333 136.5,85C 136.272,84.6012 135.938,84.4346 135.5,84.5 Z"/></g>
<g><path style="opacity:1" fill="#606d7d" d="M 71.5,95.5 C 71.8432,97.4832 71.1765,98.8166 69.5,99.5C 65.9707,97.5772 61.9707,96.9106 57.5,97.5C 56.5,97.5 55.5,97.5 54.5,97.5C 54.1667,97.5 53.8333,97.5 53.5,97.5C 53.0825,96.7784 52.4158,96.2784 51.5,96C 53.1341,95.5065 54.8008,95.3398 56.5,95.5C 61.6446,94.3093 66.6446,94.3093 71.5,95.5 Z"/></g>
<g><path style="opacity:1" fill="#2180d7" d="M 32.5,95.5 C 31.8333,95.5 31.5,95.8333 31.5,96.5C 27.1235,96.9088 22.7902,97.5755 18.5,98.5C 18.5,97.8333 18.5,97.1667 18.5,96.5C 22.7232,96.2128 26.8899,95.5462 31,94.5C 31.7648,94.5699 32.2648,94.9033 32.5,95.5 Z"/></g>
<g><path style="opacity:1" fill="#d2d4d5" d="M 32.5,95.5 C 33.8333,96.8333 33.8333,98.1667 32.5,99.5C 31.8333,99.5 31.1667,99.5 30.5,99.5C 30.5569,98.391 30.8902,97.391 31.5,96.5C 31.5,95.8333 31.8333,95.5 32.5,95.5 Z"/></g>
<g><path style="opacity:1" fill="#e8eded" d="M 57.5,97.5 C 61.9707,96.9106 65.9707,97.5772 69.5,99.5C 68.1667,99.5 66.8333,99.5 65.5,99.5C 63.1432,99.6633 60.8098,99.4966 58.5,99C 57.944,98.6174 57.6107,98.1174 57.5,97.5 Z"/></g>
<g><path style="opacity:1" fill="#d2d6e5" d="M 140.5,82.5 C 140.5,85.8333 140.5,89.1667 140.5,92.5C 137.402,94.7919 134.236,97.1252 131,99.5C 130.586,99.0426 130.086,98.7093 129.5,98.5C 128.41,99.727 127.076,100.56 125.5,101C 126.361,103.321 125.361,104.487 122.5,104.5C 122.5,100.833 122.5,97.1667 122.5,93.5C 127.474,91.3481 132.474,89.1814 137.5,87C 140.125,85.6072 140.125,84.4405 137.5,83.5C 138.609,83.4431 139.609,83.1098 140.5,82.5 Z"/></g>
<g><path style="opacity:1" fill="#4dc4ef" d="M 31.5,96.5 C 30.8902,97.391 30.5569,98.391 30.5,99.5C 26.5236,100.295 22.5236,100.962 18.5,101.5C 18.1667,101.5 17.8333,101.5 17.5,101.5C 17.5,100.5 17.5,99.5 17.5,98.5C 17.8333,98.5 18.1667,98.5 18.5,98.5C 22.7902,97.5755 27.1235,96.9088 31.5,96.5 Z"/></g>
<g><path style="opacity:1" fill="#081438" d="M 87.5,97.5 C 87.3893,98.1174 87.056,98.6174 86.5,99C 83.4535,99.7388 80.4535,100.572 77.5,101.5C 78.6005,100.395 79.2671,99.0618 79.5,97.5C 81.8268,97.3354 83.9935,96.6687 86,95.5C 86.2784,96.4158 86.7784,97.0825 87.5,97.5 Z"/></g>
<g><path style="opacity:1" fill="#33589d" d="M 107.5,95.5 C 102.73,97.8723 97.7304,99.8723 92.5,101.5C 91.1667,101.5 89.8333,101.5 88.5,101.5C 90.5,100.5 92.5,99.5 94.5,98.5C 98.7862,97.2934 103.12,96.2934 107.5,95.5 Z"/></g>
<g><path style="opacity:1" fill="#0d204a" d="M 47.5,93.5 C 50.8291,93.2153 53.8291,93.8819 56.5,95.5C 54.8008,95.3398 53.1341,95.5065 51.5,96C 52.4158,96.2784 53.0825,96.7784 53.5,97.5C 52.1266,97.3433 50.7932,97.51 49.5,98C 50.8333,98.6667 50.8333,99.3333 49.5,100C 50.7932,100.49 52.1266,100.657 53.5,100.5C 50.3752,101.479 47.0419,101.813 43.5,101.5C 42.8333,101.5 42.1667,101.5 41.5,101.5C 38.5,100.833 35.5,100.167 32.5,99.5C 38.0398,99.2817 43.3731,98.1151 48.5,96C 47.6721,95.0853 46.6721,94.4186 45.5,94C 46.0944,93.5357 46.7611,93.369 47.5,93.5 Z"/></g>
<g><path style="opacity:1" fill="#3592d5" d="M 53.5,97.5 C 53.8333,97.5 54.1667,97.5 54.5,97.5C 54.4431,98.609 54.1098,99.609 53.5,100.5C 52.1266,100.657 50.7932,100.49 49.5,100C 50.8333,99.3333 50.8333,98.6667 49.5,98C 50.7932,97.51 52.1266,97.3433 53.5,97.5 Z"/></g>
<g><path style="opacity:1" fill="#99bdd0" d="M 54.5,97.5 C 55.5,97.5 56.5,97.5 57.5,97.5C 57.6107,98.1174 57.944,98.6174 58.5,99C 60.8098,99.4966 63.1432,99.6633 65.5,99.5C 61.7016,100.483 57.7016,100.817 53.5,100.5C 54.1098,99.609 54.4431,98.609 54.5,97.5 Z"/></g>
<g><path style="opacity:1" fill="#5f6b8d" d="M 107.5,95.5 C 109.483,95.1568 110.817,95.8235 111.5,97.5C 104.754,99.9709 98.087,102.638 91.5,105.5C 91.4226,104.25 90.756,103.417 89.5,103C 90.7375,102.768 91.7375,102.268 92.5,101.5C 97.7304,99.8723 102.73,97.8723 107.5,95.5 Z"/></g>
<g><path style="opacity:1" fill="#0a0a0d" d="M 71.5,95.5 C 72.1667,96.5 72.8333,97.5 73.5,98.5C 73.5106,100.017 74.1772,101.184 75.5,102C 72.2823,102.9 69.2823,104.067 66.5,105.5C 62.8379,105.723 59.5046,106.723 56.5,108.5C 53.0534,108.814 49.7201,109.648 46.5,111C 41.8333,111.333 37.1667,111.667 32.5,112C 33.5,112.333 34.5,112.667 35.5,113C 31.4631,113.607 27.4631,113.44 23.5,112.5C 22.8333,112.5 22.1667,112.5 21.5,112.5C 21.1667,112.5 20.8333,112.5 20.5,112.5C 20.1667,111.167 19.8333,109.833 19.5,108.5C 27.5,106.167 35.5,103.833 43.5,101.5C 47.0419,101.813 50.3752,101.479 53.5,100.5C 57.7016,100.817 61.7016,100.483 65.5,99.5C 66.8333,99.5 68.1667,99.5 69.5,99.5C 71.1765,98.8166 71.8432,97.4832 71.5,95.5 Z"/></g>
<g><path style="opacity:1" fill="#5c88c6" d="M 90.5,95.5 C 90.5,96.1667 90.5,96.8333 90.5,97.5C 91.5676,98.4345 92.901,98.7678 94.5,98.5C 92.5,99.5 90.5,100.5 88.5,101.5C 87.5,101.5 86.5,101.5 85.5,101.5C 82.7938,101.575 80.1272,101.908 77.5,102.5C 77.5,102.167 77.5,101.833 77.5,101.5C 80.4535,100.572 83.4535,99.7388 86.5,99C 87.056,98.6174 87.3893,98.1174 87.5,97.5C 87.5,97.1667 87.5,96.8333 87.5,96.5C 88.7498,96.4226 89.5831,95.756 90,94.5C 90.3988,94.7284 90.5654,95.0618 90.5,95.5 Z"/></g>
<g><path style="opacity:1" fill="#2f58a9" d="M 85.5,101.5 C 85.3893,102.117 85.056,102.617 84.5,103C 81.8121,103.392 79.1454,103.892 76.5,104.5C 75.5836,104.457 74.9169,104.124 74.5,103.5C 75.609,103.443 76.609,103.11 77.5,102.5C 80.1272,101.908 82.7938,101.575 85.5,101.5 Z"/></g>
<g><path style="opacity:1" fill="#113c97" d="M 30.5,99.5 C 31.1667,99.5 31.8333,99.5 32.5,99.5C 35.5,100.167 38.5,100.833 41.5,101.5C 33.8616,103.294 26.1949,104.961 18.5,106.5C 18.5,104.833 18.5,103.167 18.5,101.5C 22.5236,100.962 26.5236,100.295 30.5,99.5 Z"/></g>
<g><path style="opacity:1" fill="#868c9f" d="M 41.5,101.5 C 42.1667,101.5 42.8333,101.5 43.5,101.5C 35.5,103.833 27.5,106.167 19.5,108.5C 18.6618,108.158 18.3284,107.492 18.5,106.5C 26.1949,104.961 33.8616,103.294 41.5,101.5 Z"/></g>
<g><path style="opacity:1" fill="#666875" d="M 79.5,97.5 C 79.2671,99.0618 78.6005,100.395 77.5,101.5C 77.5,101.833 77.5,102.167 77.5,102.5C 76.609,103.11 75.609,103.443 74.5,103.5C 72.0075,104.774 69.3408,105.44 66.5,105.5C 69.2823,104.067 72.2823,102.9 75.5,102C 74.1772,101.184 73.5106,100.017 73.5,98.5C 75.0728,100.836 76.4061,100.836 77.5,98.5C 78.1667,98.1667 78.8333,97.8333 79.5,97.5 Z"/></g>
<g><path style="opacity:1" fill="#34364e" d="M 85.5,101.5 C 86.5,101.5 87.5,101.5 88.5,101.5C 89.8333,101.5 91.1667,101.5 92.5,101.5C 91.7375,102.268 90.7375,102.768 89.5,103C 90.756,103.417 91.4226,104.25 91.5,105.5C 91.1667,105.5 90.8333,105.5 90.5,105.5C 89.3588,104.661 88.0255,103.994 86.5,103.5C 82.6929,105.388 78.6929,106.888 74.5,108C 75.2438,109.039 76.2438,109.539 77.5,109.5C 77.5,110.833 76.8333,111.5 75.5,111.5C 74.7095,110.599 73.7095,109.932 72.5,109.5C 72.8039,108.85 73.1373,108.183 73.5,107.5C 70.9015,106.969 68.2348,106.802 65.5,107C 66.056,106.617 66.3893,106.117 66.5,105.5C 69.3408,105.44 72.0075,104.774 74.5,103.5C 74.9169,104.124 75.5836,104.457 76.5,104.5C 79.1454,103.892 81.8121,103.392 84.5,103C 85.056,102.617 85.3893,102.117 85.5,101.5 Z"/></g>
<g><path style="opacity:1" fill="#5a5f72" d="M 90.5,105.5 C 86.7284,108.2 82.3951,109.534 77.5,109.5C 76.2438,109.539 75.2438,109.039 74.5,108C 78.6929,106.888 82.6929,105.388 86.5,103.5C 88.0255,103.994 89.3588,104.661 90.5,105.5 Z"/></g>
<g><path style="opacity:1" fill="#4391d5" d="M 122.5,93.5 C 122.5,97.1667 122.5,100.833 122.5,104.5C 122.167,104.5 121.833,104.5 121.5,104.5C 121.5,103.5 121.5,102.5 121.5,101.5C 121.785,99.712 121.452,98.0453 120.5,96.5C 114.883,98.8294 109.55,101.496 104.5,104.5C 101.513,106.314 98.5134,107.981 95.5,109.5C 95.1667,109.5 94.8333,109.5 94.5,109.5C 93.4324,108.566 92.099,108.232 90.5,108.5C 95.3577,106.26 100.358,104.094 105.5,102C 107.747,100.723 109.747,99.2225 111.5,97.5C 115.269,96.4491 118.935,95.1157 122.5,93.5 Z"/></g>
<g><path style="opacity:1" fill="#345998" d="M 121.5,101.5 C 119.418,101.624 117.918,102.624 117,104.5C 112.985,104.303 108.818,104.303 104.5,104.5C 109.55,101.496 114.883,98.8294 120.5,96.5C 121.452,98.0453 121.785,99.712 121.5,101.5 Z"/></g>
<g><path style="opacity:1" fill="#423432" d="M 66.5,105.5 C 66.3893,106.117 66.056,106.617 65.5,107C 68.2348,106.802 70.9015,106.969 73.5,107.5C 73.1373,108.183 72.8039,108.85 72.5,109.5C 71.1266,109.343 69.7932,109.51 68.5,110C 67.2617,110.69 67.2617,111.19 68.5,111.5C 68.5,111.833 68.5,112.167 68.5,112.5C 65.8127,112.336 63.146,112.503 60.5,113C 61.6226,114.044 62.9559,114.71 64.5,115C 63.2068,115.49 61.8734,115.657 60.5,115.5C 57.8033,114.37 55.1367,114.37 52.5,115.5C 50.1565,117.711 47.4898,118.045 44.5,116.5C 42.0587,118.272 39.3921,119.606 36.5,120.5C 35.0603,119.048 33.3936,118.048 31.5,117.5C 34.5,116.167 37.5,114.833 40.5,113.5C 46.1662,112.61 51.4995,110.943 56.5,108.5C 59.5046,106.723 62.8379,105.723 66.5,105.5 Z"/></g>
<g><path style="opacity:1" fill="#6f7687" d="M 72.5,109.5 C 73.7095,109.932 74.7095,110.599 75.5,111.5C 75.1344,112.695 74.301,113.361 73,113.5C 71.6998,112.293 70.1998,111.626 68.5,111.5C 67.2617,111.19 67.2617,110.69 68.5,110C 69.7932,109.51 71.1266,109.343 72.5,109.5 Z"/></g>
<g><path style="opacity:1" fill="#4a5574" d="M 21.5,112.5 C 22.1667,112.5 22.8333,112.5 23.5,112.5C 25.364,114.014 27.364,115.347 29.5,116.5C 25.5914,117.879 22.9248,116.546 21.5,112.5 Z"/></g>
<g><path style="opacity:1" fill="#40b1e5" d="M 90.5,108.5 C 92.099,108.232 93.4324,108.566 94.5,109.5C 92.6316,110.263 90.9649,111.263 89.5,112.5C 84.5156,114.326 79.8489,116.659 75.5,119.5C 72.2214,120.492 68.8881,120.659 65.5,120C 73.5852,115.624 81.9185,111.791 90.5,108.5 Z"/></g>
<g><path style="opacity:1" fill="#1b3f88" d="M 121.5,101.5 C 121.5,102.5 121.5,103.5 121.5,104.5C 121.353,107.792 120.353,110.792 118.5,113.5C 118.167,113.5 117.833,113.5 117.5,113.5C 116.738,112.025 116.405,110.691 116.5,109.5C 111.812,112.006 106.812,113.672 101.5,114.5C 100.522,114.023 99.6891,113.357 99,112.5C 96.9283,115.121 94.4283,115.788 91.5,114.5C 93.9398,113.664 95.2732,111.997 95.5,109.5C 98.5134,107.981 101.513,106.314 104.5,104.5C 108.818,104.303 112.985,104.303 117,104.5C 117.918,102.624 119.418,101.624 121.5,101.5 Z"/></g>
<g><path style="opacity:1" fill="#12439c" d="M 94.5,109.5 C 94.8333,109.5 95.1667,109.5 95.5,109.5C 95.2732,111.997 93.9398,113.664 91.5,114.5C 94.4283,115.788 96.9283,115.121 99,112.5C 99.6891,113.357 100.522,114.023 101.5,114.5C 106.812,113.672 111.812,112.006 116.5,109.5C 116.405,110.691 116.738,112.025 117.5,113.5C 116.5,114.833 115.5,116.167 114.5,117.5C 113.833,117.833 113.167,118.167 112.5,118.5C 110.703,119.73 108.703,120.396 106.5,120.5C 95.9865,120.828 85.6532,120.494 75.5,119.5C 78.9717,119.874 81.9717,118.874 84.5,116.5C 85.086,116.709 85.586,117.043 86,117.5C 87.1404,115.721 88.307,114.054 89.5,112.5C 90.9649,111.263 92.6316,110.263 94.5,109.5 Z"/></g>
<g><path style="opacity:1" fill="#77797d" d="M 56.5,108.5 C 51.4995,110.943 46.1662,112.61 40.5,113.5C 36.6528,113.894 32.9861,114.894 29.5,116.5C 27.364,115.347 25.364,114.014 23.5,112.5C 27.4631,113.44 31.4631,113.607 35.5,113C 34.5,112.667 33.5,112.333 32.5,112C 37.1667,111.667 41.8333,111.333 46.5,111C 49.7201,109.648 53.0534,108.814 56.5,108.5 Z"/></g>
<g><path style="opacity:1" fill="#95969c" d="M 60.5,115.5 C 59.8166,117.176 58.4832,117.843 56.5,117.5C 55.0048,117.011 53.6715,116.345 52.5,115.5C 55.1367,114.37 57.8033,114.37 60.5,115.5 Z"/></g>
<g><path style="opacity:1" fill="#616c86" d="M 68.5,112.5 C 69.65,114.267 68.9833,115.433 66.5,116C 61.3369,118.124 56.0035,119.624 50.5,120.5C 49.5,120.5 48.5,120.5 47.5,120.5C 45.8008,120.66 44.1341,120.494 42.5,120C 42.8333,119.667 43.1667,119.333 43.5,119C 48.0195,118.825 52.3528,118.325 56.5,117.5C 58.4832,117.843 59.8166,117.176 60.5,115.5C 61.8734,115.657 63.2068,115.49 64.5,115C 62.9559,114.71 61.6226,114.044 60.5,113C 63.146,112.503 65.8127,112.336 68.5,112.5 Z"/></g>
<g><path style="opacity:1" fill="#34578e" d="M 111.5,97.5 C 109.747,99.2225 107.747,100.723 105.5,102C 100.358,104.094 95.3577,106.26 90.5,108.5C 81.9185,111.791 73.5852,115.624 65.5,120C 68.8881,120.659 72.2214,120.492 75.5,119.5C 85.6532,120.494 95.9865,120.828 106.5,120.5C 87.8333,121.833 69.1667,121.833 50.5,120.5C 56.0035,119.624 61.3369,118.124 66.5,116C 68.9833,115.433 69.65,114.267 68.5,112.5C 68.5,112.167 68.5,111.833 68.5,111.5C 70.1998,111.626 71.6998,112.293 73,113.5C 74.301,113.361 75.1344,112.695 75.5,111.5C 76.8333,111.5 77.5,110.833 77.5,109.5C 82.3951,109.534 86.7284,108.2 90.5,105.5C 90.8333,105.5 91.1667,105.5 91.5,105.5C 98.087,102.638 104.754,99.9709 111.5,97.5 Z"/></g>
<g><path style="opacity:1" fill="#1e6fbc" d="M 89.5,112.5 C 88.307,114.054 87.1404,115.721 86,117.5C 85.586,117.043 85.086,116.709 84.5,116.5C 81.9717,118.874 78.9717,119.874 75.5,119.5C 79.8489,116.659 84.5156,114.326 89.5,112.5 Z"/></g>
<g><path style="opacity:1" fill="#dfdfe3" d="M 140.5,92.5 C 140.5,93.5 140.5,94.5 140.5,95.5C 137.408,97.7128 134.074,99.3795 130.5,100.5C 130.454,103.551 131.454,106.218 133.5,108.5C 132.91,109.799 131.91,110.632 130.5,111C 131.167,111.333 131.833,111.667 132.5,112C 131.549,112.718 131.383,113.551 132,114.5C 133.101,116.394 134.434,117.061 136,116.5C 136.49,117.793 136.657,119.127 136.5,120.5C 131.959,120.331 131.626,120.998 135.5,122.5C 133.311,123.173 131.311,124.173 129.5,125.5C 128.914,125.291 128.414,124.957 128,124.5C 125.914,126.249 123.581,127.583 121,128.5C 119.358,128.022 118.191,127.022 117.5,125.5C 120.351,124.008 123.351,122.508 126.5,121C 123.846,118.836 120.846,117.336 117.5,116.5C 118.127,115.583 118.461,114.583 118.5,113.5C 120.353,110.792 121.353,107.792 121.5,104.5C 121.833,104.5 122.167,104.5 122.5,104.5C 125.361,104.487 126.361,103.321 125.5,101C 127.076,100.56 128.41,99.727 129.5,98.5C 130.086,98.7093 130.586,99.0426 131,99.5C 134.236,97.1252 137.402,94.7919 140.5,92.5 Z"/></g>
<g><path style="opacity:1" fill="#e0e1e3" d="M 17.5,101.5 C 17.8333,101.5 18.1667,101.5 18.5,101.5C 18.5,103.167 18.5,104.833 18.5,106.5C 18.3284,107.492 18.6618,108.158 19.5,108.5C 19.8333,109.833 20.1667,111.167 20.5,112.5C 20.4208,113.93 20.7542,115.264 21.5,116.5C 19.3683,117.598 17.2016,118.598 15,119.5C 14.6667,119.167 14.3333,118.833 14,118.5C 13.1144,121.44 13.9477,122.44 16.5,121.5C 17.7989,122.09 18.6322,123.09 19,124.5C 20.8733,123.911 22.54,124.578 24,126.5C 26.0417,125.715 28.0417,126.048 30,127.5C 30.9745,125.122 31.6411,125.456 32,128.5C 34.3606,125.558 37.1939,124.891 40.5,126.5C 43.8987,127.82 47.3987,127.82 51,126.5C 52.7533,127.627 54.5866,128.627 56.5,129.5C 57.5174,126.972 58.6841,126.972 60,129.5C 64.6833,127.587 69.1833,127.253 73.5,128.5C 77.2914,125.885 81.1247,125.885 85,128.5C 85.6891,127.643 86.5224,126.977 87.5,126.5C 90.2765,126.946 92.7765,127.946 95,129.5C 99.2673,128.704 103.601,128.038 108,127.5C 109.07,127.528 109.903,127.861 110.5,128.5C 106.629,129.84 102.629,130.673 98.5,131C 97.436,132.511 96.1026,132.677 94.5,131.5C 92.7839,131.629 91.1172,131.962 89.5,132.5C 86.0703,132.893 82.9036,132.227 80,130.5C 79.3261,131.578 78.3261,132.245 77,132.5C 74.8463,131.748 72.6797,131.581 70.5,132C 67.6063,135.267 64.4396,135.1 61,131.5C 59.8118,132.563 59.3118,133.897 59.5,135.5C 58.1667,135.5 56.8333,135.5 55.5,135.5C 55.67,134.178 55.3366,133.011 54.5,132C 51.9528,131.34 49.4528,131.507 47,132.5C 43.0591,129.874 40.2257,130.874 38.5,135.5C 36.2228,134.551 34.2228,133.218 32.5,131.5C 30.2216,131.781 29.0549,133.115 29,135.5C 27.9887,134.663 26.8221,134.33 25.5,134.5C 25.0338,132.799 25.0338,131.299 25.5,130C 22.1277,129.866 18.961,129.032 16,127.5C 12.4252,130.307 9.92524,129.473 8.5,125C 7.21613,124.316 6.04946,124.483 5,125.5C 4.5488,123.071 3.71547,122.904 2.5,125C 2.83333,125.333 3.16667,125.667 3.5,126C 2.20677,126.49 0.873441,126.657 -0.5,126.5C -0.5,120.5 -0.5,114.5 -0.5,108.5C 1.19919,108.66 2.86586,108.494 4.5,108C 8.69637,105.656 13.0297,103.49 17.5,101.5 Z"/></g>
<g><path style="opacity:1" fill="#2a334d" d="M 52.5,115.5 C 53.6715,116.345 55.0048,117.011 56.5,117.5C 52.3528,118.325 48.0195,118.825 43.5,119C 43.1667,119.333 42.8333,119.667 42.5,120C 44.1341,120.494 45.8008,120.66 47.5,120.5C 41.4711,122.032 35.4711,121.699 29.5,119.5C 28.8333,119.5 28.5,119.167 28.5,118.5C 29.209,117.596 30.209,117.263 31.5,117.5C 33.3936,118.048 35.0603,119.048 36.5,120.5C 39.3921,119.606 42.0587,118.272 44.5,116.5C 47.4898,118.045 50.1565,117.711 52.5,115.5 Z"/></g>
<g><path style="opacity:1" fill="#babcc2" d="M 20.5,112.5 C 20.8333,112.5 21.1667,112.5 21.5,112.5C 22.9248,116.546 25.5914,117.879 29.5,116.5C 32.9861,114.894 36.6528,113.894 40.5,113.5C 37.5,114.833 34.5,116.167 31.5,117.5C 30.209,117.263 29.209,117.596 28.5,118.5C 24.5417,121.138 25.2083,122.638 30.5,123C 57.3365,123.83 84.0032,123.664 110.5,122.5C 112.086,121.852 113.753,121.352 115.5,121C 113.881,120.764 112.881,119.931 112.5,118.5C 113.167,118.167 113.833,117.833 114.5,117.5C 117.023,118.384 119.69,119.218 122.5,120C 122.167,120.333 121.833,120.667 121.5,121C 115.05,123.402 108.55,125.569 102,127.5C 99.1459,126.886 96.3125,126.219 93.5,125.5C 84.4455,125.74 75.1122,125.906 65.5,126C 64.5,128 63.5,128 62.5,126C 54.9882,125.178 47.6549,125.345 40.5,126.5C 37.1939,124.891 34.3606,125.558 32,128.5C 31.6411,125.456 30.9745,125.122 30,127.5C 28.0417,126.048 26.0417,125.715 24,126.5C 22.54,124.578 20.8733,123.911 19,124.5C 18.6322,123.09 17.7989,122.09 16.5,121.5C 13.9477,122.44 13.1144,121.44 14,118.5C 14.3333,118.833 14.6667,119.167 15,119.5C 17.2016,118.598 19.3683,117.598 21.5,116.5C 20.7542,115.264 20.4208,113.93 20.5,112.5 Z"/></g>
<g><path style="opacity:1" fill="#8a8f98" d="M 28.5,118.5 C 28.5,119.167 28.8333,119.5 29.5,119.5C 28.3984,121.092 29.065,121.925 31.5,122C 57.8312,122.5 84.1646,122.667 110.5,122.5C 84.0032,123.664 57.3365,123.83 30.5,123C 25.2083,122.638 24.5417,121.138 28.5,118.5 Z"/></g>
<g><path style="opacity:1" fill="#565c64" d="M 112.5,118.5 C 112.881,119.931 113.881,120.764 115.5,121C 113.753,121.352 112.086,121.852 110.5,122.5C 84.1646,122.667 57.8312,122.5 31.5,122C 29.065,121.925 28.3984,121.092 29.5,119.5C 35.4711,121.699 41.4711,122.032 47.5,120.5C 48.5,120.5 49.5,120.5 50.5,120.5C 69.1667,121.833 87.8333,121.833 106.5,120.5C 108.703,120.396 110.703,119.73 112.5,118.5 Z"/></g>
<g><path style="opacity:1" fill="#cdcfd3" d="M 117.5,113.5 C 117.833,113.5 118.167,113.5 118.5,113.5C 118.461,114.583 118.127,115.583 117.5,116.5C 120.846,117.336 123.846,118.836 126.5,121C 123.351,122.508 120.351,124.008 117.5,125.5C 115.654,127.455 113.321,128.455 110.5,128.5C 109.903,127.861 109.07,127.528 108,127.5C 103.601,128.038 99.2673,128.704 95,129.5C 92.7765,127.946 90.2765,126.946 87.5,126.5C 86.5224,126.977 85.6891,127.643 85,128.5C 81.1247,125.885 77.2914,125.885 73.5,128.5C 69.1833,127.253 64.6833,127.587 60,129.5C 58.6841,126.972 57.5174,126.972 56.5,129.5C 54.5866,128.627 52.7533,127.627 51,126.5C 47.3987,127.82 43.8987,127.82 40.5,126.5C 47.6549,125.345 54.9882,125.178 62.5,126C 63.5,128 64.5,128 65.5,126C 75.1122,125.906 84.4455,125.74 93.5,125.5C 96.3125,126.219 99.1459,126.886 102,127.5C 108.55,125.569 115.05,123.402 121.5,121C 121.833,120.667 122.167,120.333 122.5,120C 119.69,119.218 117.023,118.384 114.5,117.5C 115.5,116.167 116.5,114.833 117.5,113.5 Z"/></g>
<g><path style="opacity:1" fill="#e9e9ec" d="M 140.5,95.5 C 140.5,106.167 140.5,116.833 140.5,127.5C 137.319,127.976 134.153,128.309 131,128.5C 128.148,125.98 125.981,126.647 124.5,130.5C 123.264,131.246 121.93,131.579 120.5,131.5C 120.5,132.833 120.5,134.167 120.5,135.5C 117.487,135.628 114.987,134.628 113,132.5C 110.359,132.903 108.026,133.903 106,135.5C 105.5,135 105,134.5 104.5,134C 101.5,133.667 98.5,133.333 95.5,133C 94.944,132.617 94.6107,132.117 94.5,131.5C 96.1026,132.677 97.436,132.511 98.5,131C 102.629,130.673 106.629,129.84 110.5,128.5C 113.321,128.455 115.654,127.455 117.5,125.5C 118.191,127.022 119.358,128.022 121,128.5C 123.581,127.583 125.914,126.249 128,124.5C 128.414,124.957 128.914,125.291 129.5,125.5C 131.311,124.173 133.311,123.173 135.5,122.5C 131.626,120.998 131.959,120.331 136.5,120.5C 136.657,119.127 136.49,117.793 136,116.5C 134.434,117.061 133.101,116.394 132,114.5C 131.383,113.551 131.549,112.718 132.5,112C 131.833,111.667 131.167,111.333 130.5,111C 131.91,110.632 132.91,109.799 133.5,108.5C 131.454,106.218 130.454,103.551 130.5,100.5C 134.074,99.3795 137.408,97.7128 140.5,95.5 Z"/></g>
<g><path style="opacity:1" fill="#edeeef" d="M 89.5,132.5 C 89.5,133.5 89.5,134.5 89.5,135.5C 88.1667,135.5 86.8333,135.5 85.5,135.5C 85.634,137.292 85.3007,138.958 84.5,140.5C 69.8333,140.5 55.1667,140.5 40.5,140.5C 40.9227,138.219 40.256,136.552 38.5,135.5C 40.2257,130.874 43.0591,129.874 47,132.5C 49.4528,131.507 51.9528,131.34 54.5,132C 55.3366,133.011 55.67,134.178 55.5,135.5C 56.8333,135.5 58.1667,135.5 59.5,135.5C 59.3118,133.897 59.8118,132.563 61,131.5C 64.4396,135.1 67.6063,135.267 70.5,132C 72.6797,131.581 74.8463,131.748 77,132.5C 78.3261,132.245 79.3261,131.578 80,130.5C 82.9036,132.227 86.0703,132.893 89.5,132.5 Z"/></g>
<g><path style="opacity:1" fill="#edeef0" d="M 38.5,135.5 C 40.256,136.552 40.9227,138.219 40.5,140.5C 26.8333,140.5 13.1667,140.5 -0.5,140.5C -0.5,135.833 -0.5,131.167 -0.5,126.5C 0.873441,126.657 2.20677,126.49 3.5,126C 3.16667,125.667 2.83333,125.333 2.5,125C 3.71547,122.904 4.5488,123.071 5,125.5C 6.04946,124.483 7.21613,124.316 8.5,125C 9.92524,129.473 12.4252,130.307 16,127.5C 18.961,129.032 22.1277,129.866 25.5,130C 25.0338,131.299 25.0338,132.799 25.5,134.5C 26.8221,134.33 27.9887,134.663 29,135.5C 29.0549,133.115 30.2216,131.781 32.5,131.5C 34.2228,133.218 36.2228,134.551 38.5,135.5 Z"/></g>
<g><path style="opacity:1" fill="#eff0f1" d="M 140.5,127.5 C 140.5,131.833 140.5,136.167 140.5,140.5C 121.833,140.5 103.167,140.5 84.5,140.5C 85.3007,138.958 85.634,137.292 85.5,135.5C 86.8333,135.5 88.1667,135.5 89.5,135.5C 89.5,134.5 89.5,133.5 89.5,132.5C 91.1172,131.962 92.7839,131.629 94.5,131.5C 94.6107,132.117 94.944,132.617 95.5,133C 98.5,133.333 101.5,133.667 104.5,134C 105,134.5 105.5,135 106,135.5C 108.026,133.903 110.359,132.903 113,132.5C 114.987,134.628 117.487,135.628 120.5,135.5C 120.5,134.167 120.5,132.833 120.5,131.5C 121.93,131.579 123.264,131.246 124.5,130.5C 125.981,126.647 128.148,125.98 131,128.5C 134.153,128.309 137.319,127.976 140.5,127.5 Z"/></g>
</svg>
